<?xml version="1.0" standalone="no"?>
<!DOCTYPE svg PUBLIC "-//W3C//DTD SVG 20010904//EN"
 "http://www.w3.org/TR/2001/REC-SVG-20010904/DTD/svg10.dtd">
<svg version="1.0" xmlns="http://www.w3.org/2000/svg"
 width="1254.000000pt" height="1254.000000pt" viewBox="0 0 1254.000000 1254.000000"
 preserveAspectRatio="xMidYMid meet">

<g transform="translate(0.000000,1254.000000) scale(0.100000,-0.100000)"
fill="#000000" stroke="none">
<path d="M0 6270 l0 -6270 6270 0 6270 0 0 6270 0 6270 -6270 0 -6270 0 0
-6270z m6321 3945 c163 -28 286 -87 399 -192 115 -106 209 -287 227 -435 l8
-63 190 -2 c106 -1 209 -7 233 -14 57 -16 129 -82 158 -144 23 -49 24 -54 24
-385 0 -384 -2 -395 -81 -447 l-43 -28 -1220 -3 c-672 -1 -1236 0 -1254 3 -42
8 -100 59 -123 110 -17 36 -19 72 -19 361 0 359 3 379 67 454 21 24 60 53 87
66 47 22 63 24 226 24 96 0 198 3 226 6 l52 7 6 59 c24 212 188 444 384 546
154 80 297 105 453 77z m3094 -460 c24 -84 99 -226 157 -299 72 -90 173 -170
273 -217 86 -40 211 -79 260 -80 17 0 -16 -12 -75 -28 -228 -58 -378 -161
-500 -341 -71 -105 -138 -288 -141 -387 0 -15 -9 8 -19 52 -60 262 -183 451
-373 569 -81 51 -249 115 -302 117 -16 0 -39 4 -50 8 -14 6 -5 9 35 14 30 4
91 18 135 33 154 50 275 134 376 261 93 118 138 223 186 438 5 26 7 22 15 -30
4 -32 14 -82 23 -110z m-4895 -709 l0 -205 -277 -3 c-261 -3 -282 -5 -335 -26
-110 -44 -186 -124 -225 -236 -17 -49 -18 -171 -18 -2551 l0 -2500 23 -58 c44
-109 123 -187 227 -226 55 -21 66 -21 1330 -21 701 0 1275 -4 1275 -9 0 -8
-273 -142 -375 -185 -266 -109 -589 -191 -858 -217 -72 -6 -340 -9 -747 -7
-708 5 -673 1 -835 77 -199 93 -353 278 -427 511 l-23 75 0 2565 0 2565 23 75
c90 286 297 487 576 560 61 16 112 19 369 19 l297 1 0 -204z m3755 -31 c247
-68 440 -266 505 -521 19 -75 20 -116 20 -1374 l0 -1297 -190 -121 c-104 -67
-192 -122 -195 -122 -2 0 -6 636 -7 1413 l-3 1412 -34 63 c-37 69 -80 110
-151 145 -39 19 -66 23 -200 27 l-155 5 -3 185 c-1 101 0 191 3 199 8 20 325
9 410 -14z m-1422 -1382 c-446 -2 -1180 -2 -1630 0 -450 1 -84 2 812 2 897 0
1265 -1 818 -2z m885 -29 c12 -8 29 -30 38 -47 16 -32 16 -32 -16 5 -17 21
-39 42 -48 48 -9 5 -12 10 -7 10 6 0 21 -7 33 -16z m-3408 -8 c0 -2 -8 -10
-17 -17 -16 -13 -17 -12 -4 4 13 16 21 21 21 13z m-41 -226 c11 -24 11 -24 -3
-6 -9 11 -16 24 -16 30 0 12 5 7 19 -24z m3481 -29 c-29 -42 -36 -39 -8 3 13
19 24 33 26 31 3 -2 -6 -18 -18 -34z m-3386 -60 c-4 -4 -84 47 -84 54 0 2 20
-8 44 -23 24 -15 42 -29 40 -31z m3346 23 c0 -3 -16 -12 -35 -20 -30 -12 -260
-14 -1667 -12 l-1633 3 1645 5 c1269 4 1650 8 1665 17 23 14 25 15 25 7z
m-3227 -651 c-13 -2 -35 -2 -50 0 -16 2 -5 4 22 4 28 0 40 -2 28 -4z m455 0
c-42 -2 -114 -2 -160 0 -46 1 -11 3 77 3 88 0 125 -2 83 -3z m1167 -4 c25 -6
50 -19 57 -28 11 -14 11 -14 -3 -3 -9 7 -31 10 -50 7 -27 -4 -29 -3 -9 3 23 8
22 9 -15 14 -22 3 -249 6 -504 7 -256 1 -467 4 -470 6 -10 11 951 5 994 -6z
m-1708 -5 c-3 -3 -12 -4 -19 -1 -8 3 -5 6 6 6 11 1 17 -2 13 -5z m-77 -27 c0
-2 -10 -12 -22 -23 l-23 -19 19 23 c18 21 26 27 26 19z m1917 -109 c-3 -8 -6
-5 -6 6 -1 11 2 17 5 13 3 -3 4 -12 1 -19z m-1990 -55 c-3 -10 -5 -4 -5 12 0
17 2 24 5 18 2 -7 2 -21 0 -30z m1990 -5 c-3 -8 -6 -5 -6 6 -1 11 2 17 5 13 3
-3 4 -12 1 -19z m1320 -129 c155 -75 212 -260 131 -424 -12 -24 -143 -164
-322 -345 -166 -168 -542 -550 -836 -850 -594 -607 -597 -610 -713 -610 -93 0
-155 33 -251 133 -43 45 -244 251 -446 458 -338 345 -369 380 -390 435 -60
159 2 330 148 401 47 23 70 28 132 28 132 -1 144 -10 497 -371 l307 -315 96
98 c400 413 1317 1336 1344 1352 50 31 134 51 191 46 28 -3 78 -19 112 -36z
m-1357 28 c0 -2 -10 -12 -22 -23 l-23 -19 19 23 c18 21 26 27 26 19z m-537
-64 c-232 -2 -614 -2 -850 0 -235 1 -45 2 422 2 468 0 660 -1 428 -2z m3851
-510 c3 -32 13 -139 21 -238 80 -957 106 -1279 103 -1290 -2 -9 -82 39 -213
126 -115 76 -212 139 -215 139 -3 0 -27 -39 -54 -88 -28 -48 -94 -152 -147
-232 -489 -728 -1215 -1237 -2059 -1444 -331 -81 -574 -106 -994 -105 -324 1
-327 2 -102 44 339 63 765 214 1093 385 372 196 660 406 943 689 223 223 383
427 525 666 68 116 196 373 187 378 -7 5 -130 52 -387 149 -60 23 -114 45
-118 49 -5 3 22 24 60 46 37 22 262 154 498 293 500 295 837 490 846 490 4 0
10 -26 13 -57z"/>
<path d="M6103 9804 c-105 -38 -186 -160 -187 -284 -1 -138 84 -251 218 -292
61 -18 77 -20 123 -10 109 23 177 73 222 164 27 52 31 72 31 139 0 68 -4 85
-33 140 -36 70 -102 128 -167 148 -51 15 -156 13 -207 -5z"/>
</g>
</svg>
